o EyeWet_L
v 0.0207 -0.0026 0.17205
v 0.0211 -0.00445 0.17625
v 0.0215 -0.00845 0.17345
v 0.02145 -0.007 0.1696
v 0.02075 -0.00725 0.1694
v 0.02115 -0.00835 0.173
v 0.01985 -0.00775 0.16925
v 0.0197 -0.00775 0.16825
v 0.04455 0.001 0.166
v 0.043 -0.0031 0.16785
v 0.04325 -0.00265 0.16845
v 0.04505 0.0014 0.1664
v 0.0439 0.00035 0.16535
v 0.0426 -0.0037 0.16695
v 0.04285 -0.00055 0.1644
v 0.04185 -0.0046 0.16585
v 0.0413 -0.00195 0.16365
v 0.0406 -0.0061 0.16485
v 0.03915 -0.00815 0.1634
v 0.039 -0.0081 0.1637
v 0.03705 -0.0096 0.1624
v 0.03715 -0.0097 0.1621
v 0.04075 -0.00615 0.1646
v 0.03485 -0.00995 0.16185
v 0.0349 -0.0101 0.1615
v 0.03245 -0.00975 0.16155
v 0.03245 -0.0099 0.1612
v 0.0289 -0.0056 0.1623
v 0.03025 -0.00985 0.16145
v 0.03145 -0.0055 0.162
v 0.02655 -0.00575 0.16275
v 0.0282 -0.01 0.16145
v 0.0245 -0.00535 0.16355
v 0.0263 -0.0096 0.16185
v 0.02275 -0.0051 0.16455
v 0.0248 -0.0093 0.16285
v 0.0236 -0.0087 0.164
v 0.02315 -0.00875 0.1635
v 0.0244 -0.0094 0.1623
v 0.0217 -0.00455 0.16595
v 0.0217 -0.00385 0.16705
v 0.02295 -0.0081 0.16485
v 0.02245 -0.00845 0.16455
v 0.02225 -0.0077 0.16555
v 0.0217 -0.00815 0.1652
v 0.0213 -0.00755 0.16565
v 0.0203 -0.0081 0.16585
v 0.02095 -0.0083 0.16525
v 0.02195 -0.0072 0.16625
v 0.0211 -0.0074 0.1669
v 0.0217 -0.00705 0.16705
v 0.0215 -0.007 0.1677
v 0.0209 -0.0074 0.1677
v 0.0199 -0.0082 0.1663
v 0.0196 -0.00815 0.1667
v 0.01955 -0.00835 0.16885
v 0.01905 -0.00805 0.1678
v 0.01925 -0.00865 0.1686
v 0.01865 -0.00835 0.16745
v 0.0455 0.00195 0.1671
v 0.04525 0.00165 0.1668
v 0.04335 -0.00245 0.16895
v 0.04355 -0.0021 0.1693
v 0.02085 -0.00735 0.1683
v 0.0215 -0.0069 0.16845
v 0.0195 -0.0078 0.1673
v 0.02025 -0.0084 0.1651
v 0.01945 -0.008 0.16545
v 0.01975 -0.0085 0.16485
v 0.0188 -0.0083 0.165
v 0.0188 -0.008 0.1658
v 0.0182 -0.00805 0.16525
v 0.0179 -0.0079 0.16585
v 0.01855 -0.00795 0.16625
v 0.01865 -0.00785 0.16695
v 0.0179 -0.0078 0.16675
v 0.01885 -0.0089 0.1685
v 0.01815 -0.00855 0.1673
v 0.01715 -0.0081 0.1665
v 0.0169 -0.0079 0.1656
v 0.01715 -0.00825 0.1647
v 0.01815 -0.00855 0.16445
v 0.0191 -0.0086 0.16435
v 0.04325 -0.00305 0.16765
v 0.0434 -0.0026 0.16835
v 0.04285 -0.00365 0.1666
v 0.04205 -0.0046 0.1655
v 0.03925 -0.004 0.1627
v 0.03675 -0.0054 0.162
v 0.0342 -0.0057 0.1619
v 0.03025 -0.01005 0.16115
v 0.02815 -0.01015 0.16115
v 0.0262 -0.0098 0.1615
v 0.0211 -0.00335 0.1679
v 0.0208 -0.00265 0.16905
v 0.02045 -0.00255 0.16945
v 0.0203 -0.0024 0.17
v 0.04355 -0.00235 0.16885
v 0.04375 -0.00205 0.16925
v 0.02055 -0.00235 0.17085
vt 0.0938 0.1227
vt 0.098 0.1341
vt 0.0894 0.1372
vt 0.0832 0.1241
vt 0.0726 0.1254
vt 0.0808 0.1404
vt 0.0635 0.1466
vt 0.0514 0.1281
vt 0.9715 0.2818
vt 0.9839 0.2812
vt 0.9843 0.3053
vt 0.9742 0.3034
vt 0.9688 0.2603
vt 0.9834 0.2572
vt 0.9439 0.2273
vt 0.9565 0.2205
vt 0.9189 0.1942
vt 0.9296 0.1837
vt 0.8489 0.1229
vt 0.8439 0.1354
vt 0.7582 0.087
vt 0.7575 0.0726
vt 0.9403 0.1733
vt 0.6518 0.0546
vt 0.6485 0.0404
vt 0.5454 0.0222
vt 0.5396 0.0081
vt 0.4615 0.0309
vt 0.4569 0.018
vt 0.5512 0.0363
vt 0.3717 0.0255
vt 0.3684 0.0137
vt 0.2916 0.0398
vt 0.2906 0.029
vt 0.2114 0.0542
vt 0.2128 0.0443
vt 0.1722 0.0542
vt 0.172 0.0463
vt 0.2142 0.0345
vt 0.1724 0.0621
vt 0.1333 0.0701
vt 0.1315 0.0641
vt 0.1297 0.0581
vt 0.1117 0.0728
vt 0.1067 0.0681
vt 0.0837 0.0781
vt 0.0672 0.0713
vt 0.0967 0.0587
vt 0.0919 0.0816
vt 0.0733 0.0885
vt 0.0837 0.0911
vt 0.0755 0.1006
vt 0.0629 0.0989
vt 0.0524 0.0834
vt 0.0376 0.0955
vt 0.0544 0.1493
vt 0.0413 0.1264
vt 0.0454 0.1519
vt 0.0313 0.1248
vt 0.9608 0.3288
vt 0.9675 0.3161
vt 0.9766 0.3178
vt 0.9689 0.3303
vt 0.0677 0.1122
vt 0.0794 0.1123
vt 0.0445 0.1118
vt 0.0829 0.0514
vt 0.0497 0.0647
vt 0.0692 0.044
vt 0.0322 0.0581
vt 0.0382 0.077
vt 0.024 0.0707
vt 0.0158 0.0832
vt 0.0267 0.0893
vt 0.034 0.1079
vt 0.0235 0.104
vt 0.0351 0.1535
vt 0.0208 0.1227
vt 0.0114 0.1006
vt 0.002 0.0786
vt 0.0056 0.0665
vt 0.0092 0.0543
vt 0.0496 0.0372
vt 0.9962 0.2806
vt 0.9944 0.3071
vt 0.998 0.254
vt 0.9691 0.2136
vt 0.8389 0.1478
vt 0.7588 0.1015
vt 0.655 0.0689
vt 0.4523 0.0051
vt 0.365 0.002
vt 0.2896 0.0182
vt 0.1167 0.0775
vt 0.1001 0.085
vt 0.0941 0.0937
vt 0.0882 0.1024
vt 0.9857 0.3195
vt 0.9771 0.3318
vt 0.091 0.1125
vn 0.49055 0.0948 -0.0193
vn 0.4956 0.0632 -0.0192
vn 0.4876 -0.1009 -0.04535
vn 0.44625 -0.2217 -0.04115
vn 0.2331 -0.4386 -0.0575
vn 0.01655 -0.4774 -0.1476
vn -0.173 -0.46805 0.0318
vn 0.23345 -0.4414 -0.02605
vn -0.39105 0.2384 0.20065
vn -0.2831 -0.2728 0.3089
vn -0.29675 -0.2977 0.27075
vn -0.41925 0.2437 0.12175
vn -0.39995 0.21125 0.2131
vn -0.2263 -0.2772 0.3492
vn -0.36925 0.1884 0.2796
vn -0.144 -0.2373 0.4159
vn -0.31855 0.15675 0.3521
vn -0.09375 -0.20065 0.4483
vn 0.2595 -0.38905 0.177
vn -0.0398 -0.24775 0.4325
vn -0.02905 -0.30525 0.39495
vn 0.1071 -0.4501 0.18955
vn 0.2953 -0.3537 0.19415
vn -0.06405 -0.3182 0.3803
vn -0.0089 -0.4738 0.1595
vn -0.0461 -0.28275 0.4098
vn -0.02035 -0.44385 0.22925
vn 0.08535 -0.0726 0.4873
vn 0.00965 -0.2953 0.40335
vn 0.04115 -0.0431 0.49645
vn 0.13935 -0.0902 0.47165
vn 0.0149 -0.3221 0.3821
vn 0.2163 -0.0856 0.4426
vn 0.06405 -0.3302 0.36995
vn 0.3767 0.04925 0.32505
vn 0.1347 -0.34545 0.3354
vn 0.15495 -0.3219 0.3498
vn -0.0685 -0.4772 0.1326
vn -0.07105 -0.47625 0.13465
vn 0.43755 0.23245 -0.067
vn 0.436 0.00245 0.24475
vn 0.2478 -0.2414 0.361
vn 0.11905 -0.40555 0.2671
vn 0.22125 -0.2707 0.35745
vn 0.0601 -0.3233 0.37665
vn 0.11405 -0.38485 0.29815
vn 0.12045 -0.46915 0.12405
vn 0.0874 -0.4322 0.23565
vn 0.3487 -0.27045 0.23505
vn 0.23565 -0.4337 0.07985
vn 0.41765 -0.22055 0.16405
vn 0.4451 -0.19945 0.11005
vn 0.25285 -0.4271 0.0605
vn 0.06935 -0.4947 0.02145
vn -0.0305 -0.4749 0.15345
vn 0.4269 -0.11735 -0.2324
vn 0.3492 -0.2707 -0.2341
vn 0.35525 -0.25385 -0.2436
vn 0.3063 -0.21895 -0.329
vn -0.42175 0.2526 0.09135
vn -0.42805 0.24275 0.0885
vn -0.3039 -0.27595 0.28545
vn -0.3454 -0.17385 0.317
vn 0.1905 -0.45885 0.05615
vn 0.4682 -0.17545 0.0016
vn -0.0024 -0.4748 0.1567
vn -0.03745 -0.3845 0.3174
vn -0.03545 -0.47465 0.1532
vn -0.0494 -0.44225 0.22795
vn -0.05385 -0.41375 0.27555
vn -0.035 -0.4985 0.0157
vn -0.04295 -0.4582 0.1955
vn -0.03605 -0.49385 0.06945
vn -0.08095 -0.49235 0.0323
vn 0.00985 -0.49875 -0.03385
vn 0.1276 -0.445 -0.1889
vn 0.26665 -0.3417 -0.2493
vn 0.21435 -0.28375 -0.3515
vn 0.22405 -0.3818 -0.23245
vn -0.0023 -0.49725 0.0523
vn -0.01005 -0.4496 0.21855
vn -0.0417 -0.44055 0.23275
vn -0.0253 -0.47365 0.15815
vn 0.23625 -0.4072 0.16845
vn 0.26065 -0.3975 0.1551
vn 0.25925 -0.40235 0.14465
vn 0.29755 -0.3742 0.14645
vn -0.2564 0.11105 0.41465
vn -0.1006 0.0424 0.48795
vn -0.00015 -0.00595 0.49995
vn 0.02295 -0.4339 0.2474
vn -0.0043 -0.43445 0.2475
vn -0.02195 -0.441 0.2346
vn 0.4799 0.06225 0.1258
vn 0.3928 -0.0812 0.29855
vn 0.46325 0.03335 0.1852
vn 0.46895 0.15865 -0.0701
vn 0.2397 -0.40295 0.17375
vn 0.2045 -0.39545 0.2276
vn 0.4744 0.13905 -0.0748
f 1/1/1 2/2/2 3/3/3
f 1/1/1 3/3/3 4/4/4
f 5/5/5 6/6/6 7/7/7
f 5/5/5 7/7/7 8/8/8
f 9/9/9 10/10/10 11/11/11
f 9/9/9 11/11/11 12/12/12
f 13/13/13 14/14/14 10/10/10
f 13/13/13 10/10/10 9/9/9
f 15/15/15 16/16/16 14/14/14
f 15/15/15 14/14/14 13/13/13
f 17/17/17 18/18/18 16/16/16
f 17/17/17 16/16/16 15/15/15
f 19/19/19 20/20/20 21/21/21
f 19/19/19 21/21/21 22/22/22
f 23/23/23 18/18/18 20/20/20
f 23/23/23 20/20/20 19/19/19
f 22/22/22 21/21/21 24/24/24
f 22/22/22 24/24/24 25/25/25
f 25/25/25 24/24/24 26/26/26
f 25/25/25 26/26/26 27/27/27
f 28/28/28 29/29/29 26/26/26
f 28/28/28 26/26/26 30/30/30
f 28/28/28 31/31/31 32/32/32
f 28/28/28 32/32/32 29/29/29
f 31/31/31 33/33/33 34/34/34
f 31/31/31 34/34/34 32/32/32
f 33/33/33 35/35/35 36/36/36
f 33/33/33 36/36/36 34/34/34
f 36/36/36 37/37/37 38/38/38
f 36/36/36 38/38/38 39/39/39
f 40/40/40 41/41/41 42/42/42
f 40/40/40 42/42/42 37/37/37
f 43/43/43 42/42/42 44/44/44
f 43/43/43 44/44/44 45/45/45
f 45/45/45 46/46/46 47/47/47
f 45/45/45 47/47/47 48/48/48
f 44/44/44 49/49/49 46/46/46
f 44/44/44 46/46/46 45/45/45
f 50/50/50 46/46/46 49/49/49
f 50/50/50 49/49/49 51/51/51
f 50/50/50 51/51/51 52/52/52
f 50/50/50 52/52/52 53/53/53
f 47/47/47 46/46/46 50/50/50
f 47/47/47 50/50/50 54/54/54
f 54/54/54 50/50/50 53/53/53
f 54/54/54 53/53/53 55/55/55
f 8/8/8 7/7/7 56/56/56
f 8/8/8 56/56/56 57/57/57
f 57/57/57 56/56/56 58/58/58
f 57/57/57 58/58/58 59/59/59
f 60/60/60 61/61/61 62/62/62
f 60/60/60 62/62/62 63/63/63
f 12/12/12 11/11/11 62/62/62
f 12/12/12 62/62/62 61/61/61
f 5/5/5 64/64/64 65/65/65
f 5/5/5 65/65/65 4/4/4
f 64/64/64 5/5/5 8/8/8
f 64/64/64 8/8/8 66/66/66
f 64/64/64 53/53/53 52/52/52
f 64/64/64 52/52/52 65/65/65
f 53/53/53 64/64/64 66/66/66
f 53/53/53 66/66/66 55/55/55
f 67/67/67 48/48/48 47/47/47
f 67/67/67 47/47/47 68/68/68
f 69/69/69 67/67/67 68/68/68
f 69/69/69 68/68/68 70/70/70
f 71/71/71 72/72/72 70/70/70
f 71/71/71 70/70/70 68/68/68
f 54/54/54 71/71/71 68/68/68
f 54/54/54 68/68/68 47/47/47
f 73/73/73 72/72/72 71/71/71
f 73/73/73 71/71/71 74/74/74
f 74/74/74 71/71/71 54/54/54
f 74/74/74 54/54/54 55/55/55
f 75/75/75 57/57/57 59/59/59
f 75/75/75 59/59/59 76/76/76
f 74/74/74 75/75/75 76/76/76
f 74/74/74 76/76/76 73/73/73
f 66/66/66 8/8/8 57/57/57
f 66/66/66 57/57/57 75/75/75
f 55/55/55 66/66/66 75/75/75
f 55/55/55 75/75/75 74/74/74
f 59/59/59 58/58/58 77/77/77
f 59/59/59 77/77/77 78/78/78
f 78/78/78 79/79/79 76/76/76
f 78/78/78 76/76/76 59/59/59
f 79/79/79 80/80/80 73/73/73
f 79/79/79 73/73/73 76/76/76
f 80/80/80 81/81/81 72/72/72
f 80/80/80 72/72/72 73/73/73
f 72/72/72 81/81/81 82/82/82
f 72/72/72 82/82/82 70/70/70
f 83/83/83 69/69/69 70/70/70
f 83/83/83 70/70/70 82/82/82
f 6/6/6 5/5/5 4/4/4
f 6/6/6 4/4/4 3/3/3
f 10/10/10 84/84/84 85/85/85
f 10/10/10 85/85/85 11/11/11
f 14/14/14 86/86/86 84/84/84
f 14/14/14 84/84/84 10/10/10
f 16/16/16 87/87/87 86/86/86
f 16/16/16 86/86/86 14/14/14
f 18/18/18 23/23/23 87/87/87
f 18/18/18 87/87/87 16/16/16
f 20/20/20 88/88/88 89/89/89
f 20/20/20 89/89/89 21/21/21
f 18/18/18 17/17/17 88/88/88
f 18/18/18 88/88/88 20/20/20
f 21/21/21 89/89/89 90/90/90
f 21/21/21 90/90/90 24/24/24
f 24/24/24 90/90/90 30/30/30
f 24/24/24 30/30/30 26/26/26
f 91/91/91 27/27/27 26/26/26
f 91/91/91 26/26/26 29/29/29
f 92/92/92 91/91/91 29/29/29
f 92/92/92 29/29/29 32/32/32
f 93/93/93 92/92/92 32/32/32
f 93/93/93 32/32/32 34/34/34
f 39/39/39 93/93/93 34/34/34
f 39/39/39 34/34/34 36/36/36
f 35/35/35 40/40/40 37/37/37
f 35/35/35 37/37/37 36/36/36
f 42/42/42 43/43/43 38/38/38
f 42/42/42 38/38/38 37/37/37
f 42/42/42 41/41/41 94/94/94
f 42/42/42 94/94/94 44/44/44
f 94/94/94 95/95/95 49/49/49
f 94/94/94 49/49/49 44/44/44
f 49/49/49 95/95/95 96/96/96
f 49/49/49 96/96/96 51/51/51
f 51/51/51 96/96/96 97/97/97
f 51/51/51 97/97/97 52/52/52
f 98/98/98 99/99/99 63/63/63
f 98/98/98 63/63/63 62/62/62
f 11/11/11 85/85/85 98/98/98
f 11/11/11 98/98/98 62/62/62
f 100/100/100 1/1/1 4/4/4
f 100/100/100 4/4/4 65/65/65
f 97/97/97 100/100/100 65/65/65
f 97/97/97 65/65/65 52/52/52
